<svg xmlns="http://www.w3.org/2000/svg" viewBox="0 0 36 74"><defs><style>.cls-1{fill:#fff;stroke-linejoin:round}.cls-2{fill:none}.cls-1,.cls-2{stroke:#000;stroke-linecap:round;stroke-width:2px}</style></defs><path class="cls-1" d="M33,10a2,2,0,0,0-2,2c0-2.75-3.9-3.34-7-7h0L21.43,1.91A2.5,2.5,0,0,0,17.2,4.46L19.44,10H12a3,3,0,0,0,0,6h-.5a2.5,2.5,0,0,0,0,5h1a2.5,2.5,0,0,0,0,5h2a2.5,2.5,0,0,0,0,5H18c9.54,0,13-3.62,13-6a2,2,0,0,0,4,0V12A2,2,0,0,0,33,10Z"/><line class="cls-2" x1="11.5" y1="16" x2="13.5" y2="16"/><line class="cls-2" x1="12.5" y1="21" x2="14.5" y2="21"/><line class="cls-2" x1="14.5" y1="26" x2="15.5" y2="26"/><line class="cls-2" x1="19" y1="16" x2="23" y2="16"/><line class="cls-2" x1="19.52" y1="20.35" x2="23.5" y2="20"/><line class="cls-2" x1="20.56" y1="24.69" x2="24.5" y2="24"/><line class="cls-2" x1="31" y1="12" x2="31" y2="14"/><line class="cls-2" x1="31" y1="22" x2="31" y2="25"/><path class="cls-1" d="M33,52a2,2,0,0,0-2,2c0-2.75-3.1-1.48-7-4.18h0l-6.73-4.71a2.5,2.5,0,0,0-3.6,3.3L15.79,52H4a3,3,0,0,0,0,6h7.5a2.5,2.5,0,0,0,0,5h1a2.5,2.5,0,0,0,0,5h2a2.5,2.5,0,0,0,0,5H18c9.54,0,13-3.62,13-6a2,2,0,0,0,4,0V54A2,2,0,0,0,33,52Z"/><line class="cls-2" x1="11.5" y1="58" x2="13.5" y2="58"/><line class="cls-2" x1="12.5" y1="63" x2="14.5" y2="63"/><line class="cls-2" x1="14.5" y1="68" x2="15.5" y2="68"/><line class="cls-2" x1="19" y1="58" x2="23" y2="58"/><line class="cls-2" x1="19.52" y1="62.36" x2="23.5" y2="62"/><line class="cls-2" x1="20.56" y1="66.7" x2="24.5" y2="66"/><line class="cls-2" x1="31" y1="54" x2="31" y2="56"/><line class="cls-2" x1="31" y1="64" x2="31" y2="67"/></svg>
